<svg viewBox="0 0 46 32" fill="none" xmlns="http://www.w3.org/2000/svg">
    <path d="M22.9041 0.523438C19.2279 0.534965 15.6771 1.86084 12.8931 4.26153C10.7595 6.09994 9.21352 8.49544 8.8152 10.8993C4.14676 11.9299 0.620361 15.9967 0.620361 20.9075C0.620361 26.6121 5.37793 31.1635 11.1522 31.1635H35.9595C41.0152 31.1635 45.1878 27.1803 45.1878 22.1749C45.1878 17.6178 41.7282 13.9048 37.2938 13.2781C36.6169 6.09158 30.397 0.523438 22.9041 0.523438ZM29.4611 14.8574C29.5905 14.9869 29.6933 15.1407 29.7633 15.3098C29.8334 15.479 29.8695 15.6604 29.8695 15.8435C29.8695 16.0266 29.8334 16.208 29.7633 16.3771C29.6933 16.5463 29.5905 16.7001 29.4611 16.8295C29.3316 16.959 29.1778 17.0618 29.0087 17.1318C28.8395 17.2019 28.6581 17.238 28.475 17.238C28.2919 17.238 28.1105 17.2019 27.9414 17.1318C27.7722 17.0618 27.6184 16.959 27.4889 16.8295L24.2968 13.6346V24.1999C24.2968 24.5693 24.1501 24.9235 23.8889 25.1847C23.6277 25.4459 23.2735 25.5926 22.9041 25.5926C22.5347 25.5926 22.1805 25.4459 21.9193 25.1847C21.6581 24.9235 21.5113 24.5693 21.5113 24.1999V13.6346L18.3192 16.8295C18.0577 17.0911 17.703 17.238 17.3331 17.238C16.9633 17.238 16.6086 17.0911 16.3471 16.8295C16.0856 16.568 15.9387 16.2133 15.9387 15.8435C15.9387 15.4736 16.0856 15.119 16.3471 14.8574L21.918 9.28651C22.0474 9.15681 22.2011 9.0539 22.3703 8.98369C22.5395 8.91348 22.7209 8.87734 22.9041 8.87734C23.0873 8.87734 23.2687 8.91348 23.4379 8.98369C23.6071 9.0539 23.7608 9.15681 23.8901 9.28651L29.4611 14.8574Z" fill="currentColor" />
</svg>
